<?xml version="1.0" encoding="utf-8"?>
<!-- Generator: Adobe Illustrator 26.0.1, SVG Export Plug-In . SVG Version: 6.00 Build 0)  -->
<svg version="1.1" id="Layer_1" xmlns="http://www.w3.org/2000/svg" xmlns:xlink="http://www.w3.org/1999/xlink" x="0px" y="0px"
	 viewBox="0 0 80 80" style="enable-background:new 0 0 80 80;" xml:space="preserve">
<style type="text/css">
	.st0{fill:#154D9F;}
</style>
<g>
	<g>
		<path class="st0" d="M9.9,47c-1.7-11.1,3.3-29.7,19.8-35.8c13.2-4.9,30-0.4,37.6,13.3c7.6,13.6,3.1,30.7-9,39.3
			c-9.9,7-23.5,7.2-34.3,0.5c-2.3,0.9-4.6,1.8-6.8,2.7c2.4,2.1,10.4,8.4,22.4,8.9c2.1,0.1,14.4,0.4,25.2-8.5
			C65.7,66.7,81.3,53.2,78,33C75.5,18.1,64.2,7.2,51.3,3.4C34.6-1.4,16.5,6.1,8.1,20C1.7,30.5,2.8,41.4,3.3,45.3
			c0.2,0.5,0.6,1.8,1.9,2.7c2.2,1.6,4.7,0.9,5,0.8C10.2,48.4,10,47.8,9.9,47z"/>
		<path class="st0" d="M5.5,53.1c1.7,1.2,4.9,2.9,9,3c4.4,0.1,7.5-1.9,13.7-5.9c2.7-1.8,6.5-4.4,10.6-8c-5.2-2.2-10.4-4.3-15.7-6.5
			c1.1-0.8,2.3-1.7,3.4-2.5c6.3,0.3,12.7,0.5,19,0.8c3.1-2.5,6.2-5,9.2-7.6c1.9-1.3,4.1-1.2,5.2,0c0.7,0.7,0.9,1.7,0.9,2.2
			c-3.5,3.8-7,7.6-10.4,11.4c0.2,2.5,0.4,5,0.6,7.5c0.2,2.6,0.4,5.2,0.6,7.8c-1,2-2.1,4-3.1,6c-1.7-4.6-3.3-9.2-5-13.8
			c-1.8,1.4-4.5,3.5-7.7,5.9C27.2,60,25,61,22.8,61.7c-2.9,0.9-7.6,2.3-11.8-0.2C6.8,59,5.8,54.3,5.5,53.1z"/>
	</g>
</g>
</svg>
